REM DIRINDEX 1\2\6,1\2\7,1\2\8,1\2\9,1\3\10,1\3\11,1\4\12,1\4\13,1\4\14,1\5\15,1\5\16,1\5\17
REM DIRNAME cjc029,folder01,folder02,folder03,folder04,folder05,folder06,folder07,folder08,folder09,folder10,folder11,folder12,folder13,folder14,folder15,folder16
TITLE ""
FILE "1400_2_sec12_1150_1166.mp3" MP3
  TRACK 01 AUDIO
    TITLE "0:"
    INDEX 01 00:00:00
  TRACK 02 AUDIO
    TITLE "13:cjc029_3914"
    INDEX 01 00:00:17
  TRACK 03 AUDIO
    TITLE "0:"
    INDEX 01 00:01:28
  TRACK 04 AUDIO
    TITLE "14:cjc029_3915"
    INDEX 01 00:01:36
  TRACK 05 AUDIO
    TITLE "0:"
    INDEX 01 00:05:30
  TRACK 06 AUDIO
    TITLE "13:cjc029_3916"
    INDEX 01 00:06:14
  TRACK 07 AUDIO
    TITLE "0:"
    INDEX 01 00:07:37
  TRACK 08 AUDIO
    TITLE "14:cjc029_3917"
    INDEX 01 00:07:43
  TRACK 09 AUDIO
    TITLE "0:"
    INDEX 01 00:10:06
  TRACK 10 AUDIO
    TITLE "13:cjc029_3918"
    INDEX 01 00:10:63
  TRACK 11 AUDIO
    TITLE "0:"
    INDEX 01 00:12:28
  TRACK 12 AUDIO
    TITLE "14:cjc029_3919"
    INDEX 01 00:12:34
  TRACK 13 AUDIO
    TITLE "0:"
    INDEX 01 00:14:66
  TRACK 14 AUDIO
    TITLE "13:cjc029_3920"
    INDEX 01 00:15:46
  TRACK 15 AUDIO
    TITLE "0:"
    INDEX 01 00:17:08
  TRACK 16 AUDIO
    TITLE "14:cjc029_3921"
    INDEX 01 00:17:21
  TRACK 17 AUDIO
    TITLE "0:"
    INDEX 01 00:21:06
  TRACK 18 AUDIO
    TITLE "13:cjc029_3922"
    INDEX 01 00:21:64
  TRACK 19 AUDIO
    TITLE "0:"
    INDEX 01 00:23:20
  TRACK 20 AUDIO
    TITLE "14:cjc029_3923"
    INDEX 01 00:23:26
  TRACK 21 AUDIO
    TITLE "0:"
    INDEX 01 00:26:09
  TRACK 22 AUDIO
    TITLE "13:cjc029_3924"
    INDEX 01 00:26:66
  TRACK 23 AUDIO
    TITLE "0:"
    INDEX 01 00:28:47
  TRACK 24 AUDIO
    TITLE "14:cjc029_3925"
    INDEX 01 00:28:55
  TRACK 25 AUDIO
    TITLE "0:"
    INDEX 01 00:32:27
  TRACK 26 AUDIO
    TITLE "13:cjc029_3926"
    INDEX 01 00:33:09
  TRACK 27 AUDIO
    TITLE "0:"
    INDEX 01 00:34:20
  TRACK 28 AUDIO
    TITLE "14:cjc029_3927"
    INDEX 01 00:34:26
  TRACK 29 AUDIO
    TITLE "0:"
    INDEX 01 00:36:66
  TRACK 30 AUDIO
    TITLE "13:cjc029_3928"
    INDEX 01 00:37:52
  TRACK 31 AUDIO
    TITLE "0:"
    INDEX 01 00:38:73
  TRACK 32 AUDIO
    TITLE "14:cjc029_3929"
    INDEX 01 00:39:02
  TRACK 33 AUDIO
    TITLE "0:"
    INDEX 01 00:41:34
  TRACK 34 AUDIO
    TITLE "13:cjc029_3930"
    INDEX 01 00:42:18
  TRACK 35 AUDIO
    TITLE "0:"
    INDEX 01 00:43:40
  TRACK 36 AUDIO
    TITLE "14:cjc029_3931"
    INDEX 01 00:43:44
  TRACK 37 AUDIO
    TITLE "0:"
    INDEX 01 00:46:70
  TRACK 38 AUDIO
    TITLE "13:cjc029_3932"
    INDEX 01 00:47:52
  TRACK 39 AUDIO
    TITLE "0:"
    INDEX 01 00:49:12
  TRACK 40 AUDIO
    TITLE "14:cjc029_3933"
    INDEX 01 00:49:21
  TRACK 41 AUDIO
    TITLE "0:"
    INDEX 01 00:50:37
  TRACK 42 AUDIO
    TITLE "13:cjc029_3934"
    INDEX 01 00:51:26
  TRACK 43 AUDIO
    TITLE "0:"
    INDEX 01 00:52:45
  TRACK 44 AUDIO
    TITLE "14:cjc029_3935"
    INDEX 01 00:52:49
  TRACK 45 AUDIO
    TITLE "0:"
    INDEX 01 00:55:06
  TRACK 46 AUDIO
    TITLE "13:cjc029_3936"
    INDEX 01 00:55:61
  TRACK 47 AUDIO
    TITLE "0:"
    INDEX 01 00:56:65
  TRACK 48 AUDIO
    TITLE "14:cjc029_3937"
    INDEX 01 00:56:72
  TRACK 49 AUDIO
    TITLE "0:"
    INDEX 01 00:58:01
  TRACK 50 AUDIO
    TITLE "13:cjc029_3938"
    INDEX 01 00:58:58
  TRACK 51 AUDIO
    TITLE "0:"
    INDEX 01 01:00:15
  TRACK 52 AUDIO
    TITLE "14:cjc029_3939"
    INDEX 01 01:00:21
  TRACK 53 AUDIO
    TITLE "0:"
    INDEX 01 01:03:65
  TRACK 54 AUDIO
    TITLE "13:cjc029_3940"
    INDEX 01 01:04:48
  TRACK 55 AUDIO
    TITLE "0:"
    INDEX 01 01:05:69
  TRACK 56 AUDIO
    TITLE "14:cjc029_3941"
    INDEX 01 01:05:73
  TRACK 57 AUDIO
    TITLE "0:"
    INDEX 01 01:10:18
  TRACK 58 AUDIO
    TITLE "13:cjc029_3942"
    INDEX 01 01:11:00
  TRACK 59 AUDIO
    TITLE "0:"
    INDEX 01 01:12:38
  TRACK 60 AUDIO
    TITLE "14:cjc029_3943"
    INDEX 01 01:12:42
  TRACK 61 AUDIO
    TITLE "0:"
    INDEX 01 01:16:34
  TRACK 62 AUDIO
    TITLE "13:cjc029_3944"
    INDEX 01 01:17:26
  TRACK 63 AUDIO
    TITLE "0:"
    INDEX 01 01:18:41
  TRACK 64 AUDIO
    TITLE "14:cjc029_3945"
    INDEX 01 01:18:47
  TRACK 65 AUDIO
    TITLE "0:"
    INDEX 01 01:19:48
  TRACK 66 AUDIO
    TITLE "13:cjc029_3946"
    INDEX 01 01:20:30
  TRACK 67 AUDIO
    TITLE "0:"
    INDEX 01 01:21:55
  TRACK 68 AUDIO
    TITLE "14:cjc029_3947"
    INDEX 01 01:21:63
  TRACK 69 AUDIO
    TITLE "0:"
    INDEX 01 01:22:66
